<svg xmlns="http://www.w3.org/2000/svg" viewBox="0 0 64 64" width="64" height="64">
  <defs>
    <linearGradient id="bg_heatgun" x1="0" y1="0" x2="1" y2="1">
      <stop offset="0" stop-color="#EF4444"/>
      <stop offset="1" stop-color="#FCA5A5"/>
    </linearGradient>
  </defs>
  <rect width="64" height="64" rx="16" fill="url(#bg_heatgun)"/>
  <path d="M0 16 A16 16 0 0 1 16 0 H48 A16 16 0 0 1 64 16 V22 Q32 34 0 22 Z" fill="#ffffff" opacity="0.10"/>
  <g fill="none" stroke="#ffffff" stroke-width="3" stroke-linecap="round" stroke-linejoin="round">

    <rect x="16" y="22" width="20" height="12" rx="4"/>
    <path d="M36 24 h14 v8 h-14"/>
    <path d="M22 34 l-2 10 a4 4 0 0 0 8 0 l-1 -10"/>
    <path d="M52 22 q3 4 0 8 M56 20 q4 6 0 12" stroke-width="2.4"/>
  </g>
</svg>