<svg xmlns="http://www.w3.org/2000/svg" viewBox="0 0 64 64" width="64" height="64">
  <defs>
    <linearGradient id="bg_rotaryhammer" x1="0" y1="0" x2="1" y2="1">
      <stop offset="0" stop-color="#6D5EF6"/>
      <stop offset="1" stop-color="#A594FF"/>
    </linearGradient>
  </defs>
  <rect width="64" height="64" rx="16" fill="url(#bg_rotaryhammer)"/>
  <path d="M0 16 A16 16 0 0 1 16 0 H48 A16 16 0 0 1 64 16 V22 Q32 34 0 22 Z" fill="#ffffff" opacity="0.10"/>
  <g fill="none" stroke="#ffffff" stroke-width="3" stroke-linecap="round" stroke-linejoin="round">

    <rect x="15" y="20" width="21" height="16" rx="5"/>
    <path d="M36 25 h6 a2 2 0 0 1 2 2 v2 a2 2 0 0 1 -2 2 h-6"/>
    <path d="M44 28 H55" stroke-width="4"/>
    <path d="M49 23 V33"/>
    <path d="M23 36 l-2 9 a4 4 0 0 0 4 3 h2 a4 4 0 0 0 4 -3 l0 -9"/>
  </g>
</svg>